<svg xmlns="http://www.w3.org/2000/svg" viewBox="0 0 100 100" id="hourglass"><path fill="#d53c92" d="M80 81h-2.07c-.67-11.05-6.87-21.16-16.53-26.73L54 50l7.41-4.27C71.06 40.16 77.26 30.05 77.93 19H80c3.86 0 7-3.14 7-7s-3.14-7-7-7H20c-3.86 0-7 3.14-7 7s3.14 7 7 7h2.07c.67 11.05 6.87 21.16 16.52 26.73L46 50l-7.41 4.27C28.94 59.84 22.74 69.95 22.07 81H20c-3.86 0-7 3.14-7 7s3.14 7 7 7h60c3.86 0 7-3.14 7-7s-3.14-7-7-7zM17 12c0-1.65 1.35-3 3-3h60c1.65 0 3 1.35 3 3s-1.35 3-3 3H20c-1.65 0-3-1.35-3-3zm9.07 7h47.86c-.67 9.62-6.1 18.4-14.52 23.26L50 47.69l-9.41-5.43C32.17 37.41 26.73 28.62 26.07 19zm14.52 38.74L50 52.31l9.41 5.43C67.83 62.6 73.26 71.38 73.93 81H26.07c.66-9.62 6.1-18.4 14.52-23.26zM80 91H20c-1.65 0-3-1.35-3-3s1.35-3 3-3h60c1.65 0 3 1.35 3 3s-1.35 3-3 3zM50 39c-.13 0-.26-.01-.39-.04-.13-.02-.25-.06-.37-.11-.13-.05-.24-.12-.35-.19-.11-.07-.21-.15-.3-.25-.1-.09-.18-.19-.25-.3s-.14-.22-.19-.34c-.05-.12-.08-.25-.11-.38S48 37.13 48 37c0-.53.21-1.04.59-1.42.09-.09.19-.17.3-.24.11-.07.22-.14.35-.19a2.016 2.016 0 0 1 2.17.43 2.006 2.006 0 0 1 .55 1.81c-.02.13-.06.26-.11.38s-.12.23-.19.34c-.07.11-.15.21-.25.3-.37.38-.88.59-1.41.59zm-2.04 1.61c.03.13.04.26.04.39s-.01.26-.04.39c-.02.13-.06.25-.11.38-.05.12-.11.23-.19.34a1.789 1.789 0 0 1-.55.55c-.11.08-.22.14-.34.19-.13.05-.25.09-.38.11-.13.03-.26.04-.39.04s-.26-.01-.39-.04c-.13-.02-.25-.06-.37-.11-.13-.05-.24-.11-.35-.19a1.755 1.755 0 0 1-.55-.55c-.07-.11-.14-.22-.19-.34-.05-.13-.08-.25-.11-.38S44 41.13 44 41s.01-.26.04-.39.06-.25.11-.37c.05-.13.12-.24.19-.35.07-.11.15-.21.25-.3.09-.1.19-.18.3-.25.11-.07.22-.14.35-.19a2.047 2.047 0 0 1 1.15-.11c.13.02.25.06.38.11.12.05.23.12.34.19s.21.15.3.25c.1.09.18.19.25.3.08.11.14.22.19.35.05.12.09.24.11.37zm8 0c.03.13.04.26.04.39s-.01.26-.04.39c-.02.13-.06.25-.11.38-.05.12-.12.23-.19.34a1.789 1.789 0 0 1-.55.55c-.11.08-.22.14-.34.19-.13.05-.25.09-.38.11-.13.03-.26.04-.39.04s-.26-.01-.39-.04c-.13-.02-.26-.06-.38-.11s-.23-.11-.34-.19c-.11-.07-.21-.15-.3-.24a2.006 2.006 0 0 1-.55-1.81c.02-.13.06-.25.11-.38.05-.12.11-.23.19-.34.07-.11.15-.21.25-.3.09-.1.19-.18.3-.25.11-.08.22-.14.34-.19.12-.05.25-.09.38-.11.65-.13 1.34.08 1.8.55.1.09.18.19.25.3.07.11.14.22.19.34.05.13.09.25.11.38zm-7.37-10.19a2.006 2.006 0 0 1-.55-1.81c.03-.13.06-.26.11-.38s.12-.23.19-.34c.07-.11.15-.21.25-.3.09-.1.19-.18.3-.25.11-.07.22-.14.35-.19.12-.05.24-.09.37-.11.65-.13 1.34.08 1.8.55.1.09.18.19.25.3.07.11.14.22.19.34.05.12.09.25.11.38a2.006 2.006 0 0 1-.55 1.81c-.37.37-.88.58-1.41.58-.53 0-1.04-.21-1.41-.58zM44 33c0-.53.21-1.04.59-1.41.09-.1.19-.18.3-.25.11-.07.22-.14.35-.19a2.047 2.047 0 0 1 1.15-.11c.13.02.25.06.38.11.12.05.23.12.34.19s.21.15.3.25c.38.37.59.88.59 1.41 0 .53-.21 1.04-.59 1.41-.09.1-.19.18-.3.25-.11.07-.22.14-.34.19-.13.05-.25.09-.38.11-.13.03-.26.04-.39.04s-.26-.01-.39-.04c-.13-.02-.25-.06-.37-.11-.13-.05-.24-.12-.35-.19-.11-.07-.21-.15-.3-.25-.38-.37-.59-.88-.59-1.41zm8 0c0-.53.21-1.04.59-1.42.09-.09.19-.17.3-.24.11-.07.22-.14.34-.19.12-.05.25-.08.38-.11.65-.13 1.34.08 1.8.54.38.38.59.89.59 1.42 0 .53-.21 1.04-.59 1.41a1.966 1.966 0 0 1-1.8.55c-.13-.02-.26-.06-.38-.11s-.23-.11-.34-.19c-.11-.07-.21-.15-.3-.25-.1-.09-.18-.19-.25-.3-.08-.11-.14-.22-.19-.34-.05-.12-.09-.25-.11-.38-.03-.13-.04-.26-.04-.39zm0 40c0 .13-.01.26-.04.39-.02.13-.06.26-.11.38s-.11.23-.19.34c-.07.11-.15.21-.25.3-.09.1-.19.18-.3.25-.11.08-.22.14-.34.19-.12.05-.25.09-.38.11a1.966 1.966 0 0 1-1.8-.55c-.1-.09-.18-.19-.25-.3-.08-.11-.14-.22-.19-.34-.05-.12-.09-.25-.11-.38-.03-.13-.04-.26-.04-.39s.01-.26.04-.39c.02-.13.06-.26.11-.38s.12-.23.19-.34c.07-.11.15-.21.25-.3.74-.75 2.07-.75 2.82 0 .1.09.18.19.25.3.07.11.14.22.19.34s.08.25.11.38.04.26.04.39zm-3.41-6.59c-.38-.37-.59-.88-.59-1.41s.21-1.04.59-1.41c.09-.1.19-.18.3-.25.11-.07.22-.14.34-.19.13-.05.25-.09.38-.11.65-.14 1.34.08 1.8.55.38.37.59.88.59 1.41s-.21 1.04-.59 1.41a1.966 1.966 0 0 1-1.8.55c-.13-.02-.26-.06-.38-.11s-.23-.11-.34-.19c-.11-.07-.21-.15-.3-.25zm-.01-8a1.998 1.998 0 0 1-.54-1.8c.02-.13.06-.25.11-.38.05-.12.11-.23.19-.34.07-.11.15-.21.24-.3.75-.75 2.09-.75 2.83 0 .1.09.18.19.25.3.07.11.14.22.19.34s.09.25.11.38a1.966 1.966 0 0 1-.55 1.8c-.37.38-.88.59-1.41.59-.53 0-1.04-.21-1.42-.59zm-1.16 17.18c.37.37.58.88.58 1.41s-.21 1.04-.58 1.41c-.1.1-.2.18-.31.25-.11.08-.22.14-.34.19-.12.05-.25.09-.38.11a1.966 1.966 0 0 1-1.8-.55c-.38-.37-.59-.88-.59-1.41s.21-1.04.59-1.41c.46-.47 1.15-.68 1.8-.55.13.02.25.06.38.11.12.05.23.12.34.19s.21.15.31.25zM44 73c0 .13-.01.26-.04.39-.02.13-.06.26-.11.38s-.11.23-.19.34c-.07.11-.15.21-.25.3-.37.38-.88.59-1.41.59-.53 0-1.04-.21-1.41-.59-.1-.09-.18-.19-.25-.3-.08-.11-.14-.22-.19-.34-.05-.12-.09-.25-.11-.38-.03-.13-.04-.26-.04-.39s.01-.26.04-.39c.02-.13.06-.26.11-.38s.12-.23.19-.34c.07-.11.15-.21.25-.3.46-.47 1.15-.68 1.8-.55.13.02.25.06.38.11.12.05.23.12.34.19s.21.15.3.25c.1.09.18.19.25.3.07.11.14.22.19.34.05.12.09.25.11.38.03.13.04.26.04.39zm-4.59 2.59c.38.37.59.88.59 1.41s-.21 1.04-.59 1.41c-.09.1-.19.18-.3.25-.11.08-.22.14-.34.19-.12.05-.25.09-.38.11a1.966 1.966 0 0 1-1.8-.55c-.38-.37-.59-.88-.59-1.41s.21-1.04.59-1.41c.09-.1.19-.18.3-.25.11-.07.22-.14.34-.19.13-.05.25-.09.38-.11.26-.05.52-.05.78 0 .13.02.25.06.38.11.12.05.23.12.34.19s.21.15.3.25zM36 73c0 .13-.01.26-.04.39-.02.13-.06.26-.11.38s-.11.23-.19.34c-.07.11-.15.21-.25.3-.37.38-.88.59-1.41.59-.53 0-1.04-.21-1.41-.59-.1-.09-.18-.19-.26-.3-.07-.11-.13-.22-.18-.34-.05-.12-.09-.25-.11-.38-.03-.13-.04-.26-.04-.39s.01-.26.04-.39c.02-.13.06-.26.11-.38s.11-.23.19-.34c.07-.11.15-.21.25-.3.09-.1.19-.18.3-.25.11-.07.22-.14.35-.19a2.047 2.047 0 0 1 1.15-.11c.13.02.25.06.38.11.12.05.23.12.34.19s.21.15.3.25c.1.09.18.19.25.3.07.11.14.22.19.34.05.12.09.25.11.38.03.13.04.26.04.39zm-4.59 2.59c.38.37.59.88.59 1.41s-.21 1.04-.59 1.41c-.09.1-.19.18-.3.25-.11.08-.22.14-.34.19-.12.05-.25.09-.38.11a1.966 1.966 0 0 1-1.8-.55c-.38-.37-.59-.88-.59-1.41s.21-1.04.59-1.41c.09-.1.19-.18.3-.25.11-.07.22-.14.34-.19.13-.05.25-.09.38-.11.26-.05.52-.05.78 0 .13.02.26.06.38.11s.23.12.34.19.21.15.3.25zm24 0a2.008 2.008 0 0 1 .44 2.18c-.1.24-.25.46-.44.64-.18.19-.4.34-.64.44a2.03 2.03 0 0 1-1.16.11c-.13-.02-.26-.06-.38-.11s-.23-.11-.34-.19c-.11-.07-.21-.15-.3-.25-.38-.37-.59-.88-.59-1.41s.21-1.04.59-1.41c.09-.1.19-.18.3-.25.11-.07.22-.14.34-.19.12-.05.25-.09.38-.11a2.047 2.047 0 0 1 1.15.11c.13.05.24.12.35.19.11.07.21.15.3.25zM60 73c0 .13-.01.26-.04.39-.02.13-.06.26-.11.38s-.11.23-.19.34c-.07.11-.15.21-.25.3-.18.19-.4.34-.64.44-.25.1-.5.15-.77.15-.53 0-1.04-.21-1.41-.59-.1-.09-.18-.19-.26-.3-.07-.11-.13-.22-.18-.34-.05-.12-.09-.25-.11-.38-.03-.13-.04-.26-.04-.39s.01-.26.04-.39c.02-.13.06-.26.11-.38s.12-.23.19-.34c.07-.11.15-.21.25-.3.09-.1.19-.18.3-.25.11-.07.22-.14.34-.19.12-.05.25-.09.38-.11a2.047 2.047 0 0 1 1.15.11c.13.05.24.12.35.19.11.07.21.15.3.25.1.09.18.19.25.3.07.11.14.22.19.34s.09.25.11.38c.03.13.04.26.04.39zm3.41 2.59c.38.37.59.88.59 1.41 0 .27-.05.52-.15.77-.1.24-.25.46-.44.64-.18.19-.4.34-.64.44-.25.1-.5.15-.77.15s-.52-.05-.77-.15c-.24-.1-.46-.25-.64-.44-.19-.18-.34-.4-.44-.64a2.03 2.03 0 0 1-.11-1.16c.02-.13.06-.26.11-.38s.11-.23.19-.34c.07-.11.15-.21.25-.3.09-.1.19-.18.3-.25.11-.07.22-.14.34-.19.12-.05.25-.09.38-.11a2.047 2.047 0 0 1 1.15.11c.13.05.24.12.35.19.11.07.21.15.3.25zM68 73c0 .13-.01.26-.04.39-.02.13-.06.26-.11.38s-.11.23-.18.34c-.08.11-.16.21-.26.3-.18.19-.4.34-.64.44-.25.1-.5.15-.77.15s-.52-.05-.77-.15c-.24-.1-.46-.25-.64-.44-.1-.09-.18-.19-.26-.3-.07-.11-.13-.22-.18-.34-.05-.12-.09-.25-.11-.38-.03-.13-.04-.26-.04-.39s.01-.26.04-.39c.02-.13.06-.26.11-.38s.11-.23.19-.34c.07-.11.15-.21.25-.3.09-.1.19-.18.3-.25.11-.07.22-.14.34-.19.12-.05.25-.09.38-.11.65-.13 1.34.08 1.8.55.1.09.18.19.25.3.07.11.14.22.19.34s.09.25.11.38c.03.13.04.26.04.39zm4 4c0 .27-.05.52-.15.77-.1.24-.25.46-.44.64-.18.19-.4.34-.64.44-.25.1-.5.15-.77.15-.53 0-1.04-.21-1.41-.59-.19-.18-.34-.4-.44-.64a2.03 2.03 0 0 1-.11-1.16c.02-.13.06-.26.11-.38s.11-.23.19-.34c.07-.11.15-.21.25-.3.09-.1.19-.18.3-.25.11-.07.22-.14.34-.19.12-.05.25-.09.38-.11.26-.05.52-.05.78 0 .13.02.25.06.38.11.12.05.23.12.34.19.11.07.21.15.3.25.38.37.59.88.59 1.41zM40 29c0-.53.21-1.04.59-1.41.09-.1.19-.18.3-.25.11-.07.22-.14.35-.19a1.994 1.994 0 0 1 2.17.44 1.966 1.966 0 0 1 .55 1.8c-.03.13-.06.25-.11.38-.05.12-.12.23-.19.34-.07.11-.15.21-.25.3a1.966 1.966 0 0 1-1.8.55c-.13-.02-.25-.06-.37-.11-.13-.05-.24-.11-.35-.19-.11-.07-.21-.15-.3-.25-.1-.09-.18-.19-.25-.3s-.14-.22-.19-.34c-.05-.13-.08-.25-.11-.38S40 29.13 40 29zm16.04.39c-.03-.13-.04-.26-.04-.39s.01-.26.04-.39c.02-.13.06-.25.11-.38.05-.12.11-.23.19-.34.07-.11.15-.21.25-.3.09-.1.19-.18.3-.25.11-.07.22-.14.34-.19.12-.05.25-.08.38-.11a2.047 2.047 0 0 1 1.15.11c.13.05.24.12.35.19.11.07.21.15.3.25.38.37.59.88.59 1.41 0 .53-.21 1.04-.59 1.41a1.983 1.983 0 0 1-2.82 0c-.1-.09-.18-.19-.25-.3-.08-.11-.14-.22-.19-.34-.05-.13-.09-.25-.11-.38zm7.92 3.22a1.966 1.966 0 0 1-.55 1.8c-.09.1-.19.18-.3.25-.11.07-.22.14-.35.19-.12.05-.24.09-.37.11-.13.03-.26.04-.39.04s-.26-.01-.39-.04c-.13-.02-.25-.06-.38-.11-.12-.05-.23-.12-.34-.19-.11-.07-.21-.15-.3-.25a1.966 1.966 0 0 1-.55-1.8c.02-.13.06-.25.11-.37.05-.13.11-.24.19-.35.07-.11.15-.21.25-.3.09-.1.19-.18.3-.25.11-.07.22-.14.34-.19.13-.05.25-.08.38-.11a2.047 2.047 0 0 1 1.15.11c.13.05.24.12.35.19.11.07.21.15.3.25.1.09.18.19.25.3.07.11.14.22.19.35.05.12.09.24.11.37zm-3.37-6.2a1.966 1.966 0 0 1-.55-1.8c.02-.13.06-.25.11-.37.05-.13.11-.24.19-.35.07-.11.15-.21.25-.3.09-.1.19-.18.3-.25.11-.07.22-.14.34-.19.13-.05.25-.08.38-.11a2.047 2.047 0 0 1 1.15.11c.13.05.24.12.35.19.11.07.21.15.3.25.1.09.18.19.25.3.07.11.14.22.19.35.05.12.09.24.11.37a1.966 1.966 0 0 1-.55 1.8c-.09.1-.19.18-.3.25-.11.07-.22.14-.35.19-.12.05-.24.09-.37.11-.13.03-.26.04-.39.04s-.26-.01-.39-.04c-.13-.02-.25-.06-.38-.11-.12-.05-.23-.12-.34-.19-.11-.07-.21-.15-.3-.25zm-1.18 9.18c.38.37.59.88.59 1.41 0 .53-.21 1.04-.59 1.41a1.983 1.983 0 0 1-2.82 0c-.1-.09-.18-.19-.25-.3-.08-.11-.14-.22-.19-.34-.05-.13-.09-.25-.11-.38-.03-.13-.04-.26-.04-.39s.01-.26.04-.39c.02-.13.06-.25.11-.38.05-.12.11-.23.19-.34.07-.11.15-.21.25-.3.09-.1.19-.18.3-.25.11-.07.22-.14.34-.19.12-.05.25-.08.38-.11a2.047 2.047 0 0 1 1.15.11c.13.05.24.12.35.19.11.07.21.15.3.25zM40 33c0 .53-.21 1.04-.59 1.41-.37.38-.88.59-1.41.59-.53 0-1.04-.21-1.41-.59-.1-.09-.18-.19-.25-.3s-.14-.22-.19-.34c-.05-.12-.08-.25-.11-.38S36 33.13 36 33c0-.53.21-1.04.59-1.41.74-.75 2.08-.75 2.82 0 .1.09.18.19.25.3.07.11.14.22.19.35.05.12.08.24.11.37s.04.26.04.39zm-3.41-6.59a1.966 1.966 0 0 1-.55-1.8c.03-.13.06-.26.11-.38s.12-.23.19-.34c.07-.11.15-.21.25-.3.74-.75 2.08-.75 2.82 0 .38.37.59.88.59 1.41 0 .53-.21 1.04-.59 1.41-.37.38-.88.59-1.41.59-.53 0-1.04-.21-1.41-.59zM44 37c0 .53-.21 1.04-.59 1.41a1.966 1.966 0 0 1-1.8.55c-.13-.02-.25-.06-.37-.11-.13-.05-.24-.12-.35-.19-.11-.07-.21-.15-.3-.25a1.966 1.966 0 0 1-.55-1.8c.03-.13.06-.25.11-.38.05-.12.12-.23.19-.34a1.789 1.789 0 0 1 .55-.55c.11-.08.22-.14.35-.19.12-.05.24-.09.37-.11.65-.13 1.34.08 1.8.54.1.1.18.2.25.31.07.11.14.22.19.34.05.13.08.25.11.38s.04.26.04.39z"></path></svg>