<svg xmlns="http://www.w3.org/2000/svg" enable-background="new 0 0 68 68" viewBox="0 0 68 68" id="nachos"><path fill="#fff" d="M36.299 30.31l-10.92-14.55c-.84-1.07-2.1-1.68-3.46-1.68-1.36 0-2.6201.61-3.48 1.7L2.329 37.27c-1.08 1.34-1.28 3.14-.54 4.69.74 1.54 2.27 2.5 3.99 2.5h19.91L36.299 30.31zM11.7016 35.7043l-1.8438 2.2832c-.3442.4268-.9738.4986-1.4063.1494-.4297-.3467-.4966-.9766-.1494-1.4063l1.8438-2.2832c.3467-.4302.9775-.4956 1.4063-.1494C11.9819 34.6448 12.0488 35.2747 11.7016 35.7043zM15.6455 30.7966l-1.3052 1.6157c-.825 1.0206-2.3946-.2185-1.5557-1.2568l1.3052-1.6157c.3477-.4302.9771-.4956 1.4063-.1494C15.9257 29.7375 15.9926 30.3669 15.6455 30.7966zM65.699 46.75l-16.15-21.53c-.85-1.06-2.11-1.67-3.47-1.67-1.35 0-2.62.61-3.48 1.69l-16.11 21.49c-1.0699 1.34-1.28 3.13-.54 4.68.75 1.55 2.28 2.51 3.99 2.51h32.28c1.72 0 3.25-.97 3.99-2.52C66.949 49.86 66.749 48.06 65.699 46.75zM35.8662 45.1638l-1.8438 2.2827c-.3442.4268-.9738.4986-1.4063.1494-.4297-.3467-.4966-.9766-.1494-1.4063l1.8438-2.2827c.3477-.4297.9771-.4961 1.4063-.1494C36.1464 44.1042 36.2133 44.7341 35.8662 45.1638zM39.81 40.2556l-1.3052 1.6157c-.3468.4291-.9759.4969-1.4063.1494-.4297-.3472-.4966-.9766-.1494-1.4063l1.3052-1.6157c.3477-.4292.9771-.4961 1.4063-.1494C40.0903 39.1965 40.1572 39.8259 39.81 40.2556z"></path></svg>