<svg xmlns="http://www.w3.org/2000/svg" data-name="1" viewBox="0 0 24 24" id="carrot"><path fill="#d53c92" d="M19.792,7.6l-2.723.389,1.945-1.945a.75.75,0,1,0-1.06-1.06L16.009,6.931,16.4,4.208A.75.75,0,1,0,14.913,4L14.4,7.609a2.782,2.782,0,0,0-.956-.453c-1.32-.286-2.475.624-3.235,1.346-.009.008-.021.011-.03.019s-.007.014-.013.02c-.122.118-.236.23-.336.33a41.339,41.339,0,0,0-4.464,5.545c-1.995,3-2.488,4.835-1.55,5.772a1.626,1.626,0,0,0,1.207.459c1.045,0,2.54-.663,4.565-2.009a41.339,41.339,0,0,0,5.545-4.464c.718-.717,2.053-2.052,1.715-3.615A2.832,2.832,0,0,0,16.4,9.6L20,9.087A.75.75,0,1,0,19.792,7.6Zm-5.723,5.511c-3.105,3.1-8.354,6.532-9.193,6.02-.151-.247.038-.87.446-1.7l.131.13a.75.75,0,0,0,1.061-1.06l-.432-.432c.25-.409.53-.84.832-1.281l.875.831a.75.75,0,1,0,1.033-1.088L7.8,13.562c.3-.406.616-.811.939-1.211l1.394,1.394a.75.75,0,0,0,1.06-1.06L9.775,11.271a.6.6,0,0,0-.085-.057c.339-.386.68-.752,1.019-1.1L12.3,11.7a.75.75,0,0,0,1.06-1.06L11.809,9.1A2.014,2.014,0,0,1,12.938,8.6a.9.9,0,0,1,.186.019h0c.093.021.463.15,1.3.967a3.426,3.426,0,0,1,.954,1.287C15.543,11.639,14.62,12.562,14.069,13.113Z"></path></svg>