<svg xmlns="http://www.w3.org/2000/svg" viewBox="0 0 48 48" id="olives"><path fill-rule="evenodd" fill="#d53c92" d="m29.76 13.92-.78.78c-2.35-.49-4.6-.12-6.74 1.02-.29-.6-.7-1.13-1.24-1.55-.81-.64-1.97-1.07-3.67-1.14-1.98-.09-4.79.31-8.79 1.38-2.32.62-3.47 1.78-4.05 2.97-.86 1.77-.38 3.69-.2 4.38.19.69.74 2.6 2.36 3.7 1.09.74 2.67 1.17 4.99.55 4-1.07 6.63-2.13 8.3-3.2 1.44-.92 2.22-1.87 2.61-2.82.3-.74.37-1.5.27-2.29 1.42-.82 2.88-1.23 4.42-1.18-.27.28-.53.56-.79.84-4.16 4.46-7.71 8.76-12.04 11.86-1.49 1.07-3.06 2.16-4.8 2.89-.51.21-.75.8-.54 1.31.21.51.8.75 1.31.54.81-.34 1.59-.75 2.35-1.2-1.31 3.85-1.16 7.53 1.48 10.89.19.24.47.38.77.38.3 0 .59-.12.78-.35 3.54-4.17 3.27-8.68.56-13.38 3.24-2.47 6.1-5.58 9.13-8.9.46-.5.92-1.01 1.39-1.52.34.7.63 1.42.86 2.16-.47.02-.93.12-1.39.3-.95.39-1.91 1.17-2.82 2.61-1.06 1.67-2.13 4.3-3.2 8.3-.62 2.31-.19 3.9.55 4.99 1.1 1.63 3.01 2.18 3.7 2.36.69.18 2.62.66 4.38-.2 1.19-.58 2.35-1.73 2.97-4.05.16-.62.31-1.2.45-1.76 1.1.42 2.18.43 2.66.43.71 0 2.7-.04 4.18-1.32 1-.86 1.82-2.28 1.82-4.68 0-4.14-.35-6.96-.94-8.85-.51-1.62-1.23-2.63-2.05-3.25-.63-.48-1.34-.74-2.12-.85-.18-2.02.3-3.88 1.04-5.68.02-.06.04-.12.05-.17a52.93 52.93 0 0 1 6.51-4.33 1 1 0 0 0-.98-1.74 55.43 55.43 0 0 0-9.08 6.4c-2.12-4.26-5.4-6.33-9.38-6.53-2.8-.14-5.98.9-9.37 2.05-.31.1-.55.35-.64.66-.09.31-.03.65.18.9 4.05 5.12 9.15 7.46 15.55 6.29Zm-3.15 19.04c-1.67-.45-3.21.39-3.55 1.64-.33 1.25.59 2.74 2.25 3.19 1.67.45 3.21-.39 3.54-1.64.34-1.25-.58-2.74-2.25-3.19Zm-.52 1.93c.31.08.56.24.72.44.07.09.14.19.11.3-.03.11-.14.16-.25.2-.24.1-.54.1-.85.02-.31-.08-.56-.24-.72-.44-.07-.09-.14-.19-.11-.3.03-.1.14-.16.25-.2.24-.1.54-.1.85-.02ZM35 27.01c-1.72 0-3 1.21-3 2.5s1.28 2.5 3 2.5 3-1.21 3-2.5-1.28-2.5-3-2.5Zm0 2c.32 0 .61.08.81.24.1.07.19.15.19.26s-.09.19-.19.26c-.21.16-.5.24-.81.24s-.61-.08-.81-.24c-.1-.07-.19-.15-.19-.26s.09-.19.19-.26c.21-.16.5-.24.81-.24Zm-22.97-9.34c-.45-1.66-1.94-2.58-3.19-2.25-1.25.33-2.08 1.88-1.64 3.54.45 1.67 1.94 2.59 3.19 2.25 1.25-.33 2.08-1.88 1.64-3.55Zm22.11-7.12c-2.14 1.88-4.05 3.82-5.84 5.73.53 1 .98 2.04 1.31 3.12.1-.45.21-.87.33-1.25.51-1.62 1.23-2.63 2.05-3.25.57-.43 1.2-.69 1.89-.81-.09-1.22.01-2.4.26-3.54ZM10.1 20.18c.08.31.08.61-.02.85-.05.11-.1.22-.2.25-.11.03-.21-.04-.3-.11-.2-.16-.36-.42-.44-.72-.08-.31-.08-.61.02-.85.05-.11.1-.22.2-.25s.21.04.3.11c.2.16.36.42.44.72Z"></path></svg>