<svg xmlns="http://www.w3.org/2000/svg" viewBox="0 0 80 80" id="pizza-slice"><path fill="#fff" d="M29.258 5.815a2 2 0 0 0-1.646 1.341l-22 64.708a1.999 1.999 0 0 0 2.538 2.537l64.692-22a2 2 0 0 0 1.346-1.69l.089-.876c1.26-12.35-3.053-24.356-11.833-32.94-8.777-8.58-20.872-12.617-33.186-11.08zM21.854 36.52c2.05.156 3.652 1.899 3.652 3.988 0 2.206-1.795 4-4 4-.77 0-1.508-.24-2.147-.65l2.495-7.338zm-3.805 11.19a7.985 7.985 0 0 0 3.457.798c4.411 0 8-3.59 8-8 0-3.844-2.727-7.062-6.347-7.826l4.377-12.874c6.516 1.156 16.944 4.177 24.046 12.04 4.93 5.461 6.512 12.705 7.71 20.936L37.394 60.23c-.614-3.805-3.913-6.723-7.888-6.723-4.411 0-8 3.589-8 8 0 1.354.344 2.648.967 3.797l-11.766 4.002 7.342-21.596zm8.322 16.27a3.963 3.963 0 0 1-.865-2.472c0-2.206 1.794-4 4-4s4 1.794 4 4c0 .016-.003.03-.003.046L26.37 63.98zm43.965-14.952-7.19 2.445c-1.065-7.319-2.74-15.82-8.596-22.306-7.66-8.482-18.612-11.851-25.713-13.187l2.152-6.33c10.666-.975 21.051 2.668 28.659 10.106 7.809 7.634 11.691 18.283 10.688 29.272z"></path><path fill="#fff" d="M43.506 49.508c4.411 0 8-3.59 8-8s-3.589-8-8-8-8 3.589-8 8 3.589 8 8 8zm0-12c2.205 0 4 1.794 4 4s-1.795 4-4 4-4-1.794-4-4 1.794-4 4-4z"></path></svg>