<svg xmlns="http://www.w3.org/2000/svg" enable-background="new 0 0 128 128" viewBox="0 0 128 128" id="pizza"><path fill="#d53c92" d="M62 2v8 44c0 .8.5 1.5 1.2 1.8C63.5 56 63.7 56 64 56c.5 0 1-.2 1.4-.6l31.1-31.1 5.7-5.7c.8-.8.8-2 0-2.8C92 5.6 78.4 0 64 0 62.9 0 62 .9 62 2zM66 4c11.9.5 23.1 5.1 31.9 13.2l-2.8 2.8c0 0-.1-.1-.1-.1-.2-.2-.4-.3-.5-.5-.4-.3-.7-.6-1.1-.9-.2-.2-.4-.4-.7-.5-.3-.3-.7-.5-1-.8-.2-.2-.5-.3-.7-.5-.3-.3-.7-.5-1-.7-.2-.2-.5-.3-.7-.5-.4-.2-.7-.5-1.1-.7-.2-.2-.5-.3-.8-.5-.4-.2-.8-.4-1.1-.6-.2-.1-.5-.3-.7-.4-.4-.2-.8-.4-1.3-.6-.2-.1-.4-.2-.6-.3-.6-.3-1.2-.6-1.9-.8 0 0-.1 0-.1 0-.6-.3-1.3-.5-1.9-.7-.2-.1-.5-.2-.7-.2-.4-.2-.9-.3-1.3-.4-.3-.1-.5-.2-.8-.2-.4-.1-.8-.2-1.2-.3-.3-.1-.6-.1-.9-.2-.4-.1-.8-.2-1.2-.3-.3-.1-.6-.1-.9-.2-.4-.1-.8-.1-1.2-.2-.3 0-.6-.1-.9-.1-.4-.1-.9-.1-1.3-.2-.3 0-.6-.1-.9-.1-.5 0-.9-.1-1.4-.1-.3 0-.5 0-.8 0-.1 0-.1 0-.2 0V4zM66 12C66 12 66 12 66 12c.2 0 .3 0 .5 0 .5 0 1 .1 1.5.1.2 0 .5.1.7.1.4 0 .8.1 1.2.2.3 0 .5.1.8.1.4.1.8.1 1.2.2.3 0 .5.1.8.2.4.1.8.2 1.1.3.3.1.5.1.8.2.4.1.8.2 1.1.3.2.1.5.1.7.2.4.1.8.3 1.2.4.2.1.4.1.6.2.6.2 1.2.4 1.8.7 0 0 0 0 0 0 .6.2 1.2.5 1.7.8.2.1.4.2.6.3.4.2.8.4 1.2.6.2.1.4.2.7.4.3.2.7.4 1 .6.2.1.4.3.7.4.3.2.7.4 1 .6.2.1.4.3.7.4.3.2.6.5 1 .7.2.2.4.3.6.5.3.3.7.5 1 .8.2.1.4.3.5.4.4.3.8.7 1.2 1 .1.1.2.2.3.3 0 0 0 0 0 0L66 49.2V12zM66.5 98c0 .1-.2.4-.3.5-.8.7-.9 2-.2 2.8.4.5 1 .7 1.5.7.5 0 .9-.2 1.3-.5.2-.1 1.7-1.5 1.7-3.5 0-.9-.3-2.2-1.6-3.5-.8-.8-2.1-.7-2.8.1-.8.8-.7 2.1.1 2.8C66.4 97.7 66.5 97.9 66.5 98zM63.2 107.8c.7.3.9.9.9.9.3.8 1.1 1.3 1.9 1.3.2 0 .5 0 .7-.1 1-.4 1.5-1.5 1.2-2.6-.1-.2-.9-2.2-3.1-3.1-1-.4-2.2 0-2.6 1C61.7 106.2 62.2 107.4 63.2 107.8zM77.5 78.7c-.8.8-.7 2.1.1 2.8.3.3.4.4.4.5 0 .1-.2.4-.3.5-.8.7-.9 2-.2 2.8.4.5 1 .7 1.5.7.5 0 .9-.2 1.3-.5.2-.1 1.7-1.5 1.7-3.5 0-.9-.3-2.2-1.6-3.5C79.5 77.8 78.2 77.9 77.5 78.7zM87.9 91.3c-.1-.2-.9-2.2-3.1-3.1-1-.4-2.2 0-2.6 1-.4 1 0 2.2 1 2.6.7.3.9.9.9.9.3.8 1.1 1.3 1.9 1.3.2 0 .5 0 .7-.1C87.7 93.5 88.3 92.3 87.9 91.3zM46 92.6c-.8.8-.7 2.1.1 2.8.3.3.4.4.4.5 0 .1-.2.4-.3.5-.8.7-.9 2-.2 2.8.4.5 1 .7 1.5.7.5 0 .9-.2 1.3-.5.2-.1 1.7-1.5 1.7-3.5 0-.9-.3-2.2-1.6-3.5C48 91.8 46.8 91.8 46 92.6zM44.8 102.2c-1-.4-2.2 0-2.6 1-.4 1 0 2.2 1 2.6.7.3.9.9.9.9.3.8 1.1 1.3 1.9 1.3.2 0 .5 0 .7-.1 1-.4 1.5-1.5 1.2-2.6C47.8 105.1 47 103.1 44.8 102.2zM27.5 83c0 .1-.2.4-.3.5-.8.7-.9 2-.2 2.8.4.5 1 .7 1.5.7.5 0 .9-.2 1.3-.5.2-.1 1.7-1.5 1.7-3.5 0-.9-.3-2.2-1.6-3.5-.8-.8-2.1-.7-2.8.1-.8.8-.7 2.1.1 2.8C27.4 82.7 27.5 82.9 27.5 83zM24.2 92.8c.7.3.9.9.9.9.3.8 1.1 1.3 1.9 1.3.2 0 .5 0 .7-.1 1-.4 1.5-1.5 1.2-2.6-.1-.2-.9-2.2-3.1-3.1-1-.4-2.2 0-2.6 1C22.7 91.2 23.2 92.4 24.2 92.8zM31.1 67.2c.1.1.9.4 2 .4.6 0 1.2-.1 1.9-.4.8-.4 1.9-1.2 2.4-3 .3-1.1-.3-2.2-1.4-2.5-1.1-.3-2.2.3-2.5 1.4-.1.4-.2.5-.3.5-.1.1-.4 0-.6 0-1-.4-2.2 0-2.6 1.1C29.6 65.6 30 66.8 31.1 67.2zM22.6 58.8c-1.1.1-2 1-1.9 2.1 0 .7-.4 1.2-.4 1.2v0c-.7.8-.7 2.1.1 2.8.4.4.9.5 1.4.5.5 0 1.1-.2 1.5-.6.2-.2 1.5-1.7 1.4-4.1C24.6 59.6 23.7 58.7 22.6 58.8zM49.1 37.3c-1.1-.3-2.2.3-2.5 1.4-.1.4-.2.5-.3.5-.1.1-.4 0-.6 0-1-.4-2.2 0-2.6 1.1-.4 1 0 2.2 1.1 2.6.1.1.9.4 2 .4.6 0 1.2-.1 1.9-.4.8-.4 1.9-1.2 2.4-3C50.7 38.8 50.1 37.7 49.1 37.3zM44.7 48.8c-1.1.1-2 1-1.9 2.1 0 .7-.4 1.2-.4 1.2 0 0 0 0 0 0-.7.8-.7 2.1.1 2.8.4.4.9.5 1.4.5.5 0 1.1-.2 1.5-.6.2-.2 1.5-1.7 1.4-4.1C46.8 49.6 45.8 48.7 44.7 48.8zM84.8 64.1c.1.1.9.4 2 .4.6 0 1.2-.1 1.9-.4.8-.4 1.9-1.2 2.4-3 .3-1.1-.3-2.2-1.4-2.5-1.1-.3-2.2.3-2.5 1.4-.1.4-.2.5-.3.5-.1.1-.4 0-.6 0-1-.4-2.2 0-2.6 1.1C83.3 62.5 83.8 63.6 84.8 64.1zM77.8 66.5c.5 0 1.1-.2 1.5-.6.2-.2 1.5-1.7 1.4-4.1-.1-1.1-1-1.9-2.1-1.9-1.1.1-2 1-1.9 2.1 0 .7-.4 1.2-.4 1.2v0c-.7.8-.7 2.1.1 2.8C76.8 66.3 77.3 66.5 77.8 66.5z"></path><path fill="#d53c92" d="M82.7 22.5c-1.1-.3-2.2.3-2.5 1.4-.1.4-.2.5-.3.5-.1.1-.4 0-.6 0-1-.4-2.2 0-2.6 1.1-.4 1 0 2.2 1.1 2.6.1.1.9.4 2 .4.6 0 1.2-.1 1.9-.4.8-.4 1.9-1.2 2.4-3C84.4 23.9 83.8 22.8 82.7 22.5zM71.6 23.8c-1.1.1-2 1-1.9 2.1 0 .7-.4 1.2-.4 1.2v0c-.7.8-.7 2.1.1 2.8.4.4.9.5 1.4.5.5 0 1.1-.2 1.5-.6.2-.2 1.5-1.7 1.4-4.1C73.6 24.6 72.7 23.7 71.6 23.8z"></path><path fill="#d53c92" d="M56,128c14.4,0,28-5.6,38.2-15.8C104.4,102,110,88.4,110,74s-5.6-28-15.8-38.2c-0.8-0.8-2-0.8-2.8,0L60.9,66.3
	c-0.9-0.5-1.8-0.9-2.9-1V30v-8c0-1.1-0.9-2-2-2c-14.4,0-28,5.6-38.2,15.8C7.6,46,2,59.6,2,74s5.6,28,15.8,38.2
	C28,122.4,41.6,128,56,128z M87.1,45.8C93.7,53,97.5,62.2,98,72H65.1c-0.3-1.1-0.7-2.1-1.3-3L87.1,45.8z M65.1,76H98
	c-0.5,9.8-4.3,19-10.9,26.2L63.8,79C64.4,78.1,64.9,77.1,65.1,76z M84.2,105.1C77,111.7,67.8,115.5,58,116V82.7c1-0.2,2-0.5,2.9-1
	L84.2,105.1z M56.5,69.1c2.7,0,4.9,2.2,4.9,4.9s-2.2,4.9-4.9,4.9s-4.9-2.2-4.9-4.9S53.8,69.1,56.5,69.1z M48.8,69.6
	c-0.4,0.7-0.7,1.5-0.9,2.4H14c0.5-9.8,4.3-19,10.9-26.2L48.8,69.6z M27.8,42.9C35,36.3,44.2,32.5,54,32v33.4
	c-0.9,0.3-1.7,0.7-2.5,1.2L27.8,42.9z M47.9,76c0.2,0.8,0.5,1.6,0.9,2.4l-23.9,23.9C18.3,95,14.5,85.8,14,76H47.9z M51.5,81.3
	c0.8,0.5,1.6,0.9,2.5,1.2V116c-9.8-0.5-19-4.3-26.2-10.9L51.5,81.3z M20.6,38.6c9-9,20.8-14.1,33.4-14.6v4
	c-11.5,0.5-22.3,5.2-30.5,13.4c0,0,0,0,0,0c0,0,0,0,0,0c0,0,0,0,0,0C14.8,50.2,10,61.7,10,74c0,12.3,4.8,23.8,13.5,32.5c0,0,0,0,0,0
	c0,0,0,0,0,0c0,0,0,0,0,0C32.2,115.2,43.7,120,56,120c12.3,0,23.8-4.8,32.5-13.5c0,0,0,0,0,0c0,0,0,0,0,0c0,0,0,0,0,0
	C97.2,97.8,102,86.3,102,74c0-11.6-4.3-22.6-12.1-31.1l2.8-2.8C101.3,49.3,106,61.3,106,74c0,13.4-5.2,25.9-14.6,35.4
	c-9.4,9.4-22,14.6-35.4,14.6s-25.9-5.2-35.4-14.6C11.2,99.9,6,87.4,6,74S11.2,48.1,20.6,38.6z"></path></svg>