<svg xmlns="http://www.w3.org/2000/svg" viewBox="0 0 64 64" id="soup"><path fill="#fff" d="M59 30.003c0-5.136-16.147-7-27-7-2.364 0-4.687.081-6.939.224l-4.3-14.714a4.848 4.848 0 0 0-9.322 2.663l3.776 13.227C10.34 25.336 5 27.036 5 30.003a27.133 27.133 0 0 0 11 21.73v2.712a2.983 2.983 0 0 0 2.282 2.918 58.298 58.298 0 0 0 27.436 0A2.983 2.983 0 0 0 48 54.445v-2.71a27.134 27.134 0 0 0 11-21.732Zm-30.513 4.944-1.699-5.811c1.711-.082 3.453-.133 5.212-.133 9.41 0 17.961 1.177 22.33 3.001-3.7 1.506-11.213 3-22.33 3-1.22 0-2.381-.023-3.513-.057ZM32 25.002c16.414 0 25 3.256 25 5.001a1.237 1.237 0 0 1-.533.82c-4.214-2.329-13.672-3.82-24.467-3.82-1.955 0-3.895.057-5.79.156l-.573-1.96c2.072-.121 4.197-.197 6.363-.197ZM13.827 8.133a2.905 2.905 0 0 1 3.991-.553 2.833 2.833 0 0 1 1.022 1.492l7.54 25.796a88.83 88.83 0 0 1-6.248-.525l-6.77-23.715a2.823 2.823 0 0 1 .465-2.495ZM17.97 34.05a38.302 38.302 0 0 1-8.287-2.04 34.898 34.898 0 0 1 7.173-1.862Zm-2.202-7.711.535 1.874a29.593 29.593 0 0 0-8.769 2.612 1.238 1.238 0 0 1-.533-.82c0-.832 2.362-2.46 8.767-3.666ZM46 54.445a1 1 0 0 1-.748.972 56.286 56.286 0 0 1-26.504 0 1 1 0 0 1-.748-.972v-1.51a46.61 46.61 0 0 0 28-.017Zm-.303-3.535a44.75 44.75 0 0 1-27.35.028 25.148 25.148 0 0 1-11.16-17.965c4.775 2.906 16.387 4.031 24.813 4.031s20.038-1.125 24.813-4.031a25.15 25.15 0 0 1-11.116 17.938ZM30 21.002a1.017 1.017 0 0 0 .713-.321 1.046 1.046 0 0 0 .285-.742c0-.012-.006-1.32 1.866-4.525a7.257 7.257 0 0 0 .402-7.086c-.83-1.731-2.36-3.205-3.12-3.317a.992.992 0 0 0-.992.487 1.024 1.024 0 0 0 .06 1.121c.039.053.923 1.32-1.011 3.868-2.193 2.886-.904 6.576.06 8.518.99 1.997 1.288 1.997 1.737 1.997Zm-.204-9.306a8.204 8.204 0 0 0 1.48-2.863 5.774 5.774 0 0 1 .546 1.317 5.41 5.41 0 0 1-.685 4.256 23.285 23.285 0 0 0-1.453 2.877c-.669-1.633-1.171-3.897.112-5.587ZM39 21.002a1.017 1.017 0 0 0 .713-.321 1.046 1.046 0 0 0 .285-.742c0-.012-.006-1.32 1.866-4.525a7.257 7.257 0 0 0 .402-7.086c-.83-1.731-2.36-3.205-3.12-3.317a.993.993 0 0 0-.992.487 1.024 1.024 0 0 0 .06 1.121c.039.053.923 1.32-1.011 3.868-2.193 2.886-.904 6.576.06 8.518.99 1.997 1.288 1.997 1.737 1.997Zm-.204-9.306a8.204 8.204 0 0 0 1.48-2.863 5.774 5.774 0 0 1 .546 1.317 5.41 5.41 0 0 1-.685 4.256 23.285 23.285 0 0 0-1.453 2.877c-.669-1.633-1.171-3.897.112-5.587ZM48 21.002a1.017 1.017 0 0 0 .713-.321 1.046 1.046 0 0 0 .285-.742c0-.012-.006-1.32 1.866-4.525a7.257 7.257 0 0 0 .402-7.086c-.83-1.731-2.36-3.205-3.12-3.317a.994.994 0 0 0-.992.487 1.024 1.024 0 0 0 .06 1.121c.039.053.923 1.32-1.011 3.868-2.193 2.886-.904 6.576.06 8.518.99 1.997 1.288 1.997 1.737 1.997Zm-.204-9.306a8.204 8.204 0 0 0 1.48-2.863 5.774 5.774 0 0 1 .546 1.317 5.41 5.41 0 0 1-.685 4.256 23.285 23.285 0 0 0-1.453 2.877c-.669-1.633-1.171-3.897.112-5.587Z" data-name="Layer 2"></path></svg>